<?xml version="1.0" standalone="no"?>
<!DOCTYPE svg PUBLIC "-//W3C//DTD SVG 20010904//EN"
 "http://www.w3.org/TR/2001/REC-SVG-20010904/DTD/svg10.dtd">
<svg version="1.0" xmlns="http://www.w3.org/2000/svg"
 width="904.000000pt" height="904.000000pt" viewBox="0 0 904.000000 904.000000"
 preserveAspectRatio="xMidYMid meet">
<metadata>
Created by potrace 1.14, written by Peter Selinger 2001-2017
</metadata>
<g transform="translate(0.000000,904.000000) scale(0.100000,-0.100000)"
fill="#000000" stroke="none">
<path d="M2842 9022 c-18 -6 -14 -49 12 -132 88 -284 270 -532 511 -696 63
-43 196 -112 255 -133 19 -7 44 -17 55 -21 61 -25 209 -60 275 -66 25 -3 56
-7 70 -10 51 -12 502 -15 2350 -18 1325 -1 1903 1 1920 8 14 6 27 18 29 26 8
28 6 612 -2 617 -4 2 -4 9 0 15 6 11 8 79 3 103 -1 6 -2 12 -1 15 7 17 5 140
-2 140 -5 0 -5 5 -1 11 11 19 6 90 -9 112 l-14 22 -929 2 c-511 1 -974 3
-1029 3 -55 1 -104 1 -110 0 -5 -1 -39 -1 -75 0 -255 5 -410 4 -410 -3 0 -5
-5 -5 -11 -1 -11 7 -2867 13 -2887 6z"/>
<path d="M4473 7397 c-4 -7 -8 -950 -9 -2097 -1 -1678 -3 -2098 -14 -2150 -44
-218 -208 -393 -420 -450 -56 -15 -171 -15 -230 0 -25 6 -49 12 -55 13 -25 6
-135 63 -135 69 0 5 -7 8 -15 8 -8 0 -15 5 -15 10 0 6 -5 10 -11 10 -21 0
-134 127 -166 186 -24 46 -57 134 -68 184 -16 71 -21 241 -12 382 4 63 2 90
-7 97 -14 12 -2564 11 -2582 -1 -14 -9 -16 -42 -16 -323 0 -237 6 -411 16
-470 2 -16 7 -59 11 -95 7 -68 11 -98 21 -152 3 -18 7 -47 9 -65 2 -18 6 -36
8 -40 3 -5 8 -28 12 -53 4 -25 9 -48 12 -52 2 -5 6 -18 9 -31 9 -52 14 -67 48
-171 20 -61 51 -139 67 -175 38 -81 136 -281 149 -301 5 -8 32 -55 61 -105 78
-134 197 -306 296 -429 118 -147 328 -359 442 -446 18 -14 38 -30 44 -35 48
-42 250 -185 261 -185 3 0 25 -13 49 -30 58 -39 297 -161 297 -152 0 4 4 2 8
-4 6 -9 163 -79 202 -89 8 -2 65 -22 125 -43 61 -21 115 -39 120 -40 6 -1 28
-7 50 -13 22 -6 51 -13 64 -16 14 -2 29 -7 34 -10 6 -3 20 -7 31 -9 12 -1 64
-12 116 -24 52 -12 111 -23 130 -25 19 -2 49 -6 65 -9 41 -7 140 -18 198 -21
27 -2 51 -5 54 -8 3 -3 16 -2 29 3 13 5 25 6 28 2 9 -15 394 1 511 21 17 3 50
8 75 11 44 6 71 11 120 21 14 3 36 7 50 10 42 8 164 36 180 42 8 3 24 8 35 10
45 8 292 93 400 138 71 30 298 142 365 180 164 94 323 205 490 339 100 81 311
292 385 386 33 41 65 80 70 86 6 6 17 22 25 34 8 12 32 45 53 73 76 102 276
433 283 467 1 4 53 117 94 205 22 47 107 285 114 320 1 6 10 37 20 70 10 33
20 69 23 80 2 11 6 29 8 40 6 25 13 58 20 88 3 12 8 37 11 56 3 18 8 43 10 55
9 42 35 245 40 317 10 125 4 604 -7 604 -1 0 -4 21 -13 110 -3 33 -8 70 -10
81 -2 12 -7 37 -10 55 -3 19 -8 48 -12 64 -3 17 -7 35 -8 40 -4 20 -21 42 -41
53 -14 7 -176 11 -480 12 -253 1 -467 2 -476 1 -18 -1 -36 -37 -33 -66 2 -11
3 -29 3 -40 1 -11 2 -40 3 -65 5 -131 1 -639 -6 -725 -11 -152 -23 -258 -32
-287 -3 -10 -7 -30 -10 -45 -6 -38 -17 -88 -27 -126 -2 -6 -7 -25 -12 -42 -64
-249 -194 -510 -371 -746 -45 -60 -233 -254 -299 -309 -80 -66 -202 -153 -293
-208 -57 -35 -258 -142 -267 -143 -2 0 -26 -9 -52 -20 -92 -40 -143 -59 -143
-53 0 4 -6 2 -12 -4 -12 -9 -166 -54 -228 -66 -14 -3 -35 -7 -46 -10 -75 -16
-275 -36 -369 -37 -132 0 -327 22 -450 52 -22 5 -51 12 -65 15 -54 11 -163 48
-315 106 -84 33 -367 184 -373 200 -2 4 -8 8 -14 8 -9 0 -99 58 -108 70 -3 4
-10 9 -16 11 -40 14 -276 244 -339 329 -16 22 -34 46 -40 53 -34 41 -65 87
-65 95 0 6 -4 12 -8 14 -27 11 -212 369 -236 458 -4 14 -11 34 -16 45 -17 40
-60 181 -60 198 0 9 3 18 8 19 43 9 159 11 172 3 5 -3 11 -1 15 5 4 6 11 7 17
4 6 -4 86 -7 179 -7 179 0 186 -2 194 -49 10 -52 14 -67 28 -115 8 -28 22 -65
31 -82 9 -17 13 -31 10 -31 -4 0 -1 -8 7 -17 8 -10 21 -31 29 -48 8 -16 18
-34 22 -40 4 -5 34 -46 66 -90 48 -66 204 -232 254 -270 77 -60 104 -80 108
-85 9 -10 125 -84 160 -103 19 -10 44 -25 55 -32 57 -35 276 -118 349 -131 16
-3 32 -7 35 -9 4 -2 26 -6 51 -10 25 -4 47 -8 50 -10 9 -6 177 -16 240 -16 98
2 215 12 275 24 17 4 41 8 55 11 133 22 461 155 529 215 13 12 30 21 38 21 7
0 13 5 13 10 0 6 5 10 11 10 9 0 50 30 123 90 53 44 201 193 238 240 55 70
128 178 128 189 0 5 4 11 8 13 14 5 101 191 133 283 34 98 64 234 75 340 4 39
9 88 12 110 8 69 8 4159 0 4177 -7 15 -50 17 -528 16 -382 0 -522 -3 -527 -11z"/>
<path d="M6065 7393 c-3 -10 -7 -247 -7 -527 0 -451 2 -510 16 -524 14 -14 85
-16 663 -16 357 0 671 3 698 7 112 15 143 21 209 43 28 10 52 16 54 16 6 -5
154 75 217 117 88 58 201 169 251 246 21 33 39 62 40 65 0 3 12 30 26 60 33
72 72 193 83 260 2 14 7 36 10 50 3 14 7 45 10 70 3 25 8 60 11 78 2 18 0 42
-6 52 -10 18 -43 19 -1139 20 -1071 0 -1129 -1 -1136 -17z"/>
<path d="M6071 5761 c-11 -7 -13 -98 -12 -542 1 -364 5 -535 12 -540 6 -4 246
-5 533 -4 496 3 696 8 734 19 9 3 34 7 54 10 212 31 449 147 612 297 110 101
188 215 259 379 45 103 81 345 57 375 -11 13 -165 15 -1124 15 -617 0 -1117
-4 -1125 -9z"/>
</g>
</svg>
