<svg width="18" height="18" viewBox="0 0 18 18" fill="none" xmlns="http://www.w3.org/2000/svg">
<rect width="18" height="18" rx="4" fill="#F1ECCE"/>
<path d="M8.62154 4.88512C7.86271 4.87985 7.24289 4.44509 7.05694 3.64834C7.05563 3.64255 7.05557 3.63653 7.05676 3.63072C7.05796 3.62491 7.06039 3.61947 7.06386 3.61481C7.06732 3.61016 7.07174 3.6064 7.07678 3.60383C7.08182 3.60126 7.08735 3.59994 7.09294 3.59998L13.2666 3.61243C13.2794 3.61243 13.2918 3.61781 13.3009 3.6274C13.31 3.637 13.3152 3.65003 13.3154 3.66366L13.3199 4.81809C13.3199 4.86788 13.2962 4.89294 13.2488 4.89326C11.705 4.89869 10.1626 4.89598 8.62154 4.88512Z" fill="black"/>
<path d="M5.89583 11.1274C6.04021 11.6867 6.35502 12.2513 6.81558 12.5819C7.64988 13.1806 8.57465 13.2786 9.45876 12.7707C10.1149 12.3934 10.5285 11.8328 10.6997 11.089C10.8048 10.6325 10.787 10.0549 10.7687 9.55473C10.7685 9.54777 10.7695 9.54084 10.7719 9.53435C10.7742 9.52785 10.7778 9.52193 10.7824 9.51694C10.787 9.51196 10.7924 9.50801 10.7985 9.50533C10.8045 9.50266 10.811 9.50132 10.8176 9.50139L11.8602 9.5086C11.8807 9.50876 11.9005 9.51636 11.9162 9.53011C11.932 9.54386 11.9427 9.56291 11.9466 9.58404C12.1755 10.8405 11.8941 12.0178 11.1411 12.9927C10.9845 13.1955 10.7979 13.3845 10.5814 13.5597C9.73838 14.2415 8.62263 14.5572 7.56764 14.3237C6.32334 14.0482 5.43131 13.2752 4.89156 12.0048C4.65077 11.4383 4.62519 10.6868 4.65306 10.0674C4.65341 10.06 4.65645 10.0531 4.66156 10.048C4.66666 10.0429 4.67343 10.04 4.68047 10.04L7.59003 10.0371C7.59537 10.0371 7.60065 10.0383 7.60555 10.0405C7.61045 10.0428 7.61486 10.0461 7.61851 10.0502C7.62215 10.0544 7.62495 10.0593 7.62674 10.0646C7.62852 10.07 7.62924 10.0757 7.62886 10.0814C7.59688 10.4869 7.59551 10.8727 7.96377 11.1135C8.30782 11.3383 8.69847 11.1779 8.8657 10.817C8.90591 10.7305 8.92616 10.6061 8.92647 10.4437C8.92891 8.82277 8.92875 7.20397 8.92601 5.58725C8.92601 5.55842 8.93972 5.54401 8.96713 5.54401H10.1149C10.1237 5.54401 10.1322 5.5477 10.1385 5.55428C10.1447 5.56086 10.1482 5.56978 10.1482 5.57908C10.1476 7.05293 10.1499 8.52662 10.1551 10.0001C10.1566 10.4515 10.1351 10.7699 10.0907 10.9554C9.78408 12.2374 8.32884 12.8932 7.25603 12.1201C6.95265 11.902 6.60951 11.5339 6.56337 11.1279C6.56202 11.1155 6.5563 11.104 6.54728 11.0957C6.53827 11.0873 6.52659 11.0827 6.51448 11.0827L5.9301 11.0803C5.92466 11.0803 5.91929 11.0817 5.91442 11.0842C5.90954 11.0868 5.90529 11.0905 5.90198 11.095C5.89867 11.0996 5.89639 11.1048 5.89533 11.1105C5.89426 11.1161 5.89444 11.1219 5.89583 11.1274Z" fill="black"/>
<path d="M13.3558 5.5974C13.3246 5.91636 13.2462 6.26535 13.015 6.48895C12.777 6.7197 12.4935 6.83619 12.1644 6.83842C11.7139 6.8416 11.2539 6.84001 10.7845 6.83365C10.7693 6.8334 10.7549 6.82699 10.7443 6.81583C10.7338 6.80467 10.7279 6.78965 10.728 6.77405L10.7289 5.58072C10.7291 5.57094 10.7328 5.5616 10.7395 5.55473C10.7461 5.54786 10.755 5.54401 10.7643 5.54401L13.3113 5.54639C13.3175 5.54636 13.3237 5.54769 13.3294 5.55029C13.3351 5.5529 13.3402 5.55673 13.3444 5.56154C13.3485 5.56634 13.3517 5.57202 13.3537 5.57819C13.3557 5.58437 13.3564 5.59091 13.3558 5.5974Z" fill="black"/>
<path d="M13.32 7.56328C13.3086 8.33997 12.6958 8.82121 12.0195 8.84353C11.5987 8.85744 11.1778 8.8597 10.7568 8.85032C10.7496 8.85019 10.7427 8.84707 10.7377 8.84162C10.7327 8.83618 10.7299 8.82885 10.7299 8.82121L10.728 7.56134C10.728 7.53644 10.7397 7.52399 10.7632 7.52399L13.2849 7.52544C13.2895 7.52544 13.2941 7.52642 13.2984 7.52833C13.3027 7.53024 13.3066 7.53303 13.3099 7.53655C13.3132 7.54007 13.3157 7.54425 13.3175 7.54884C13.3192 7.55343 13.3201 7.55834 13.32 7.56328Z" fill="black"/>
</svg>
